<svg xmlns:rdf="http://www.w3.org/1999/02/22-rdf-syntax-ns#" xmlns="http://www.w3.org/2000/svg" height="96.09" width="96" version="1.1" xmlns:cc="http://creativecommons.org/ns#" xmlns:dc="http://purl.org/dc/elements/1.1/">
 <g transform="translate(-410.26217,-185.1693)">
  <g transform="translate(161.11933,-19.192898)">
   <path fill="#f4f4f4" d="m249.14,252.36,0-48,48,0,48,0,0,48,0,48-48,0-48,0,0-48z"/>
   <path fill="#ececec" d="m249.14,252.36,0-48,48,0,48,0,0,48,0,48-3.3007,0c-2.9517,0-3.5413-0.50228-5.5761-4.75-3.296-6.8808-6.8845-11.831-10.671-14.718l-3.3194-2.5318-4.8166,2.9679c-5.0701,3.1241-14.624,6.0323-19.817,6.0323-5.1929,0-14.746-2.9082-19.816-6.0322-2.649-1.6323-5.1624-2.9678-5.5852-2.9678-2.0348,0-10.394,9.855-13.208,15.572-2.9549,6.0022-3.3872,6.4279-6.5272,6.4279h-3.3627v-48zm61.488,21.55c21.116-10.331,21.123-40.487,0.0119-51.877-5.7667-3.1113-20.233-3.1113-26,0-11.405,6.1534-17.777,18.961-15.518,31.191,3.5342,19.131,23.919,29.291,41.506,20.686zm-13.572-2.5633c-4.9526-0.85322-10.515-4.5008-13.45-8.8207-1.3566-1.9965-2.4666-3.9755-2.4666-4.3978,0-1.0746,37.759-0.96645,38.425,0.11004,0.61849,1.0007-6.7197,9.6745-9.3971,11.107-3.1285,1.6743-9.4271,2.6356-13.111,2.001z"/>
   <path fill="#e3e3e3" d="m249.14,252.36,0-48,48,0,48,0,0,48,0,48-3.25-0.0104c-2.9728-0.01-3.4799-0.49995-5.9457-5.75-3.4081-7.2564-7.9817-12.762-13.519-16.273l-4.3332-2.748-5.7262,3.1365c-5.2193,2.8589-6.5229,3.1365-14.726,3.1365-8.2646,0-9.4837-0.26483-14.92-3.2412l-5.9196-3.2413-4.3492,2.5488c-5.1811,3.0363-11.833,11.102-14.591,17.693-1.813,4.3325-2.2836,4.75-5.3544,4.75h-3.3667v-48zm62.117,21.758c10.2-6.0223,15.377-14.919,15.28-26.258-0.10197-11.929-5.3204-20.368-15.779-25.516-14.748-7.2604-31.788-1.8241-39.1,12.474-8.1455,15.927,0.28828,36.036,17.476,41.667,1.3786,0.45164,5.934,0.6863,10.123,0.52147,6.0468-0.23792,8.5203-0.83313,12-2.8877zm-19.264-4.7737c-2.0061-1.0599-5.2962-3.8525-7.3112-6.2058l-3.6637-4.2787,18.705-0.2726c10.288-0.14992,18.942-0.0354,19.232,0.25454,1.0602,1.0602-5.5928,8.0036-9.8012,10.229-5.3452,2.8266-12.125,2.9347-17.162,0.27352z"/>
   <path fill="#dcdcdc" d="m249.14,252.36,0-48,48,0,48,0,0,48,0,48-3.25-0.0171c-2.9852-0.0157-3.4472-0.47247-5.6702-5.6056-2.9593-6.8334-10.451-15.235-16.398-18.39l-4.4215-2.3456-5.3803,2.3918c-7.7715,3.4548-17.514,3.3925-24.688-0.15794l-5.3032-2.6245-4.9441,2.4637c-6.1961,3.0876-14.207,11.967-17.105,18.958-2.0399,4.9215-2.4607,5.3274-5.5241,5.3274h-3.316v-48zm58.368,23.889c4.984-1.3269,13.055-8.8648,16.457-15.369,3.4656-6.6272,3.7122-17.666,0.54905-24.571-7.0401-15.366-24.747-21.894-39.634-14.61-17.961,8.7874-22.143,31.306-8.5724,46.154,9.0256,9.8754,17.29,12.099,31.2,8.396zm-13.192-6.0271c-3.2899-0.94775-12.176-8.8557-12.176-10.836,0-0.66484,6.5282-1.0263,18.535-1.0263,20.719,0,20.427-0.14699,13.297,6.6993-5.8965,5.6615-12.188,7.3141-19.656,5.1627z"/>
   <path fill="#d0d0d0" d="m249.14,252.36,0-48,48,0,48,0,0,48,0,48-3.5,0c-2.273,0-3.5-0.47366-3.5-1.3511,0-2.7018-5.2647-11.264-9.8268-15.981-2.5703-2.6578-6.85-5.9478-9.5105-7.3111l-4.8373-2.4786,4.9328-5.2157c17.823-18.845,4.7073-49.136-21.258-49.098-26.205,0.0387-39.328,30.828-21.05,49.385l4.4961,4.5648-5.4956,2.8773c-6.9021,3.6137-14.381,11.714-17.53,18.986-2.223,5.1331-2.685,5.5899-5.6702,5.6056l-3.25,0.0171v-48z"/>
   <path fill="#CCC" d="m249.16,295.11c0.0184-4.8936,0.39214-5.6913,5.5052-11.75,7.1352-8.4549,8.5316-11.425,7.2491-15.42-4.0984-12.766-4.5267-16.934-2.6496-25.78,2.5666-12.096,10.251-21.713,21.675-27.125,6.1374-2.9075,7.5414-3.1744,16.701-3.1744,9.1593,0,10.563,0.26688,16.701,3.1744,18.462,8.7462,27.187,29.721,20.214,48.592-2.8552,7.7268-2.5957,10.243,1.5439,14.971,6.4901,7.4121,9.0418,12.278,9.0418,17.242,0,4.3072-0.13467,4.5199-2.8627,4.5199-2.5298,0-3.2365-0.75933-6.0772-6.5296-3.6973-7.5102-10.626-14.901-17.278-18.43l-4.6071-2.4441,3.8712-3.7568c8.1436-7.9031,11.048-20.019,7.4186-30.946-2.5233-7.5969-11.129-16.123-18.477-18.305-10.68-3.1718-20.712-1.2242-28.357,5.5054-7.2288,6.363-9.8918,11.71-10.426,20.932-0.39527,6.8281-0.13123,8.4544,2.1991,13.544,1.4566,3.1815,4.4639,7.4608,6.683,9.5094l4.0347,3.7248-3.6023,1.1889c-7.1226,2.3507-19.138,15.656-21.063,23.324-0.56485,2.2506-1.2196,2.6827-4.0649,2.6827h-3.3916l0.0197-5.25zm-0.0197-89.25c0-0.825,0.7301-1.5,1.6224-1.5,1.3288,0,1.3971,0.27149,0.37756,1.5-1.5675,1.8887-2,1.8887-2,0z"/>
   <path fill="#c5c5c5" d="m252.14,298.75c0-1.7984,5.0157-9.0264,12.063-17.384,2.5508-3.025,4.9302-6.3244,5.2874-7.3319,0.36316-1.0244-0.55011-5.2122-2.0717-9.5-3.9592-11.157-3.7945-19.647,0.55254-28.477,1.9106-3.8809,4.9326-8.0449,7.3244-10.092,4.4667-3.8234,11.82-7.6282,14.583-7.5465,0.9685,0.0287-0.5661,0.94686-3.4102,2.0404-15.865,6.1001-23.009,25.223-15.235,40.78,1.7019,3.4058,4.574,7.3731,6.3826,8.8161l3.2882,2.6237-5.1326,2.5486c-6.8648,3.4087-13.808,10.718-17.709,18.643-3.004,6.102-5.9231,8.5066-5.9231,4.8793zm84.116-4.949c-3.5495-7.5851-11.516-15.959-17.939-18.855l-4.2342-1.9093,3.483-2.871c1.9157-1.5791,4.9116-5.7728,6.6576-9.3194,2.937-5.9658,3.1398-7.0296,2.7108-14.214-0.74926-12.547-7.3037-22.013-18.124-26.173-2.8441-1.0936-4.4555-2.0118-3.5808-2.0404,3.0164-0.0988,13.793,6.051,16.996,9.6991,8.6128,9.8094,10.656,23.29,5.5348,36.522-1.4417,3.7251-2.6212,7.644-2.6212,8.7088s2.7443,5.2125,6.0984,9.2172c5.9625,7.119,7.9698,10.22,9.899,15.294,0.73214,1.9257,0.63294,2.5068-0.42791,2.5068-0.75955,0-2.7635-2.9543-4.4532-6.565zm-41.348-76.16c1.7974-0.22256,4.4974-0.21797,6,0.0102s0.0321,0.41027-3.2679,0.40466c-3.3-0.006-4.5294-0.19231-2.7321-0.41487z"/>
   <path fill="#bcbcbc" d="m274.14,272.24c0-1.6576-0.50508-3.9966-1.1224-5.198-0.71532-1.3921,0.37272-0.7506,3,1.7687,2.2673,2.1741,4.1224,4.0426,4.1224,4.1522,0,0.10958-1.35,0.66984-3,1.245-2.901,1.0113-3,0.9464-3-1.9679zm42.313,1.831c-2.1493-1.1951-2.1161-1.2752,1.9398-4.6804,2.9815-2.5031,3.8959-2.919,3.2954-1.4987-0.45718,1.0812-1.0437,3.2033-1.3033,4.7158-0.52829,3.0775-0.82802,3.189-3.9318,1.4632z"/>
  </g>
 </g>
</svg>
